<svg id="Component_21_1" data-name="Component 21 – 1" xmlns="http://www.w3.org/2000/svg" width="48" height="48" viewBox="0 0 48 48">
  <rect id="Area_SIZE:MEDIUM_STATE:DEFAULT_STYLE:STYLE3_" data-name="Area [SIZE:MEDIUM][STATE:DEFAULT][STYLE:STYLE3]" width="48" height="48" rx="24" fill="none"/>
  <path id="Path_105" data-name="Path 105" d="M47.744,62.049a10.4,10.4,0,0,0-9.938,7.129h1.473A8.494,8.494,0,0,1,39.827,68h2.834a11.943,11.943,0,0,0-.309,1.179h1.436A11.082,11.082,0,0,1,44.149,68h2.735v1.179H48.27V68h2.955a10.341,10.341,0,0,1,.405,1.179h1.436A11.593,11.593,0,0,0,52.72,68h2.942a8.491,8.491,0,0,1,.548,1.179h1.47A10.393,10.393,0,0,0,47.744,62.049Zm2.092,1.631A9.029,9.029,0,0,1,54.7,66.613H52.125a9.724,9.724,0,0,0-2.29-2.933Zm-4.588.1a9.2,9.2,0,0,0-2.042,2.831H40.792A9.018,9.018,0,0,1,45.247,63.782Zm3.023.446a7.989,7.989,0,0,1,2.237,2.386H48.27Zm-1.386.009v2.376H44.8A7.338,7.338,0,0,1,46.884,64.237Zm-8.663,6.281a.592.592,0,0,0-.347.1.285.285,0,0,0-.139.238.915.915,0,0,0,.065.291l.736,2.116c.022.063.048.135.077.21a.724.724,0,0,0,.118.2.484.484,0,0,0,.195.136.821.821,0,0,0,.309.049.708.708,0,0,0,.368-.084.5.5,0,0,0,.195-.183,3.321,3.321,0,0,0,.136-.312l.659-1.856.656,1.866c.055.138.1.24.133.306a.491.491,0,0,0,.192.183.727.727,0,0,0,.371.08.717.717,0,0,0,.381-.084.5.5,0,0,0,.189-.192,3.066,3.066,0,0,0,.127-.322l.736-2.116a1.017,1.017,0,0,0,.068-.291.283.283,0,0,0-.142-.238.6.6,0,0,0-.343-.1.545.545,0,0,0-.312.074.424.424,0,0,0-.149.164,1.731,1.731,0,0,0-.084.232l-.52,1.8L41.315,71.1a3.154,3.154,0,0,0-.133-.309.531.531,0,0,0-.195-.189.74.74,0,0,0-.393-.087.78.78,0,0,0-.393.084.537.537,0,0,0-.207.195,2.245,2.245,0,0,0-.133.306l-.579,1.686-.523-1.813a1.029,1.029,0,0,0-.158-.331.458.458,0,0,0-.381-.127Zm7.126,0a.592.592,0,0,0-.347.1.285.285,0,0,0-.139.238.938.938,0,0,0,.068.291l.736,2.116c.022.063.048.135.077.21a.716.716,0,0,0,.114.2.484.484,0,0,0,.195.136.821.821,0,0,0,.309.049.72.72,0,0,0,.371-.084.494.494,0,0,0,.192-.183,3.321,3.321,0,0,0,.136-.312l.659-1.856.656,1.866c.055.138.1.24.133.306a.491.491,0,0,0,.192.183.727.727,0,0,0,.371.08.717.717,0,0,0,.381-.084.5.5,0,0,0,.189-.192,3.064,3.064,0,0,0,.127-.322l.736-2.116a1.017,1.017,0,0,0,.068-.291.283.283,0,0,0-.142-.238.6.6,0,0,0-.343-.1.545.545,0,0,0-.312.074.424.424,0,0,0-.149.164,1.73,1.73,0,0,0-.084.232l-.52,1.8L48.44,71.1a3.155,3.155,0,0,0-.133-.309.52.52,0,0,0-.192-.189.74.74,0,0,0-.393-.087.793.793,0,0,0-.4.084.537.537,0,0,0-.207.195,2.245,2.245,0,0,0-.133.306l-.579,1.686-.523-1.813a1.028,1.028,0,0,0-.155-.331.465.465,0,0,0-.384-.127Zm7.126,0a.592.592,0,0,0-.347.1.285.285,0,0,0-.139.238.938.938,0,0,0,.068.291l.736,2.116c.022.063.048.135.077.21a.716.716,0,0,0,.114.2.484.484,0,0,0,.195.136.821.821,0,0,0,.309.049.72.72,0,0,0,.371-.084.494.494,0,0,0,.192-.183,3.17,3.17,0,0,0,.139-.312l.656-1.856.656,1.866c.055.138.1.24.133.306a.491.491,0,0,0,.192.183.727.727,0,0,0,.371.08.717.717,0,0,0,.381-.084.5.5,0,0,0,.189-.192,3.063,3.063,0,0,0,.127-.322l.736-2.116a1.017,1.017,0,0,0,.068-.291.279.279,0,0,0-.139-.238.606.606,0,0,0-.347-.1.545.545,0,0,0-.312.074.424.424,0,0,0-.149.164,1.731,1.731,0,0,0-.084.232l-.517,1.8L55.566,71.1a3.154,3.154,0,0,0-.133-.309.52.52,0,0,0-.192-.189.74.74,0,0,0-.393-.087.793.793,0,0,0-.4.084.537.537,0,0,0-.207.195,2.245,2.245,0,0,0-.133.306l-.579,1.686-.52-1.813a1.029,1.029,0,0,0-.158-.331A.465.465,0,0,0,52.472,70.518Zm-14.718,4.5a10.482,10.482,0,0,0,19.981,0H56.272a8.538,8.538,0,0,1-.5,1.154H52.8a11.789,11.789,0,0,0,.319-1.154H51.7a9.689,9.689,0,0,1-.362,1.154H48.27V75.013H46.884v1.154H44.078a11.729,11.729,0,0,1-.328-1.154H42.327c.08.391.177.776.288,1.154h-2.9a8.554,8.554,0,0,1-.5-1.154Zm2.874,2.54h2.485a8.8,8.8,0,0,0,2.045,3.017A9,9,0,0,1,40.628,77.554Zm4.028,0h2.228v2.59A6.6,6.6,0,0,1,44.656,77.554Zm3.614,0h2.382a7.591,7.591,0,0,1-2.382,2.525Zm3.976,0h2.614a9.015,9.015,0,0,1-5.093,3.159A9.332,9.332,0,0,0,52.246,77.554Z" transform="translate(-23.735 -48.712)" fill="#fff"/>
</svg>
