<svg id="Group_50" data-name="Group 50" xmlns="http://www.w3.org/2000/svg" xmlns:xlink="http://www.w3.org/1999/xlink" width="57.619" height="72.189" viewBox="0 0 57.619 72.189">
  <defs>
    <clipPath id="clip-path">
      <rect id="Rectangle_33" data-name="Rectangle 33" width="57.619" height="72.189" fill="none"/>
    </clipPath>
  </defs>
  <path id="Path_72" data-name="Path 72" d="M41.262,180.1h-.934l-1.943-4.841h1.167l1.257,3.385,1.257-3.385H43.2Z" transform="translate(-31.957 -145.911)"/>
  <rect id="Rectangle_29" data-name="Rectangle 29" width="1.057" height="4.807" transform="translate(16.041 29.348)"/>
  <g id="Group_49" data-name="Group 49">
    <g id="Group_48" data-name="Group 48" clip-path="url(#clip-path)">
      <path id="Path_73" data-name="Path 73" d="M134.933,178.938a1.307,1.307,0,0,1-.362.467,1.63,1.63,0,0,1-.554.288,2.4,2.4,0,0,1-.713.1,3.187,3.187,0,0,1-1.078-.189,2.848,2.848,0,0,1-.961-.58l.625-.749a3.142,3.142,0,0,0,.676.426,1.808,1.808,0,0,0,.759.158.925.925,0,0,0,.512-.12.378.378,0,0,0,.182-.333v-.014a.414.414,0,0,0-.038-.182.385.385,0,0,0-.145-.148,1.541,1.541,0,0,0-.3-.137q-.19-.069-.492-.144a6.054,6.054,0,0,1-.661-.2,1.857,1.857,0,0,1-.5-.271,1.1,1.1,0,0,1-.32-.4,1.4,1.4,0,0,1-.114-.6V176.3a1.39,1.39,0,0,1,.123-.594,1.352,1.352,0,0,1,.344-.457,1.549,1.549,0,0,1,.529-.3,2.129,2.129,0,0,1,.679-.1,2.879,2.879,0,0,1,.972.158,2.822,2.822,0,0,1,.814.453l-.549.8a3.488,3.488,0,0,0-.632-.347,1.613,1.613,0,0,0-.618-.127.748.748,0,0,0-.464.12.365.365,0,0,0-.155.3v.014a.43.43,0,0,0,.045.2.4.4,0,0,0,.162.155,1.527,1.527,0,0,0,.32.13q.2.062.513.144a4.921,4.921,0,0,1,.651.216,1.815,1.815,0,0,1,.482.288,1.1,1.1,0,0,1,.3.395,1.343,1.343,0,0,1,.1.542v.014a1.486,1.486,0,0,1-.13.635" transform="translate(-109.284 -145.569)"/>
      <rect id="Rectangle_30" data-name="Rectangle 30" width="1.057" height="4.807" transform="translate(30.75 29.348)"/>
      <path id="Path_74" data-name="Path 74" d="M224.674,178.217a2.458,2.458,0,0,1-1.343,1.325,2.781,2.781,0,0,1-2.05,0,2.538,2.538,0,0,1-.807-.529,2.362,2.362,0,0,1-.529-.783,2.465,2.465,0,0,1-.189-.965v-.014a2.43,2.43,0,0,1,.192-.965,2.459,2.459,0,0,1,1.342-1.325,2.644,2.644,0,0,1,1.027-.2,2.618,2.618,0,0,1,1.023.2,2.545,2.545,0,0,1,.807.529,2.37,2.37,0,0,1,.529.783,2.469,2.469,0,0,1,.189.965v.014a2.429,2.429,0,0,1-.192.965m-.913-.965a1.6,1.6,0,0,0-.107-.584,1.439,1.439,0,0,0-.766-.807,1.41,1.41,0,0,0-.584-.12,1.436,1.436,0,0,0-.587.117,1.343,1.343,0,0,0-.453.323,1.523,1.523,0,0,0-.3.477,1.574,1.574,0,0,0-.106.58v.014a1.6,1.6,0,0,0,.106.584,1.449,1.449,0,0,0,.762.807,1.4,1.4,0,0,0,.587.12,1.443,1.443,0,0,0,.584-.117,1.338,1.338,0,0,0,.457-.323,1.523,1.523,0,0,0,.3-.477,1.574,1.574,0,0,0,.107-.58Z" transform="translate(-182.957 -145.501)"/>
      <path id="Path_75" data-name="Path 75" d="M283.161,180.066l-2.328-3.056v3.056h-1.044v-4.807h.975l2.252,2.96v-2.96h1.044v4.807Z" transform="translate(-232.936 -145.911)"/>
      <path id="Path_76" data-name="Path 76" d="M57.635,278.166v1.866c-1.466.453-2.825.906-4.2,1.291a9.87,9.87,0,0,1-6.632-.267,8.932,8.932,0,0,0-5.694-.495c.991.945,1.925,1.838,2.861,2.728a.344.344,0,0,0,.144.08,43.457,43.457,0,0,0,5.48,1.364,9.953,9.953,0,0,0,3.831-.5,13.262,13.262,0,0,1,4.2-.843V285.3c-1.389.424-2.73.837-4.072,1.244a10.135,10.135,0,0,1-6.48-.115l-.959-.341c.46,1.12.88,2.193,1.353,3.242a.989.989,0,0,0,.588.387,7.915,7.915,0,0,0,5.476-.222,8.989,8.989,0,0,1,4.1-.81v2.04a62.259,62.259,0,0,1-6.849,1.442,10.17,10.17,0,0,1-4.218-.717,8.924,8.924,0,0,0-6.587.03,10.045,10.045,0,0,1-7.887-.009,8.238,8.238,0,0,0-6.5-.007,10.125,10.125,0,0,1-7.964-.008,8.163,8.163,0,0,0-6.42-.008,10.415,10.415,0,0,1-8.048.009,27.389,27.389,0,0,0-3.12-.826V288.7a7.9,7.9,0,0,1,4.01.755,8.533,8.533,0,0,0,5,.437,1.651,1.651,0,0,0,1.444-1.255,20.4,20.4,0,0,1,1.137-2.475c-1.064.252-2.142.579-3.244.753a9.71,9.71,0,0,1-4.764-.541c-1.144-.4-2.326-.69-3.585-1.056v-2.106a21.221,21.221,0,0,1,3.43.8,8.887,8.887,0,0,0,7.443-.023,2.2,2.2,0,0,1,.786-.267,5.229,5.229,0,0,0,3.821-2.031,11.789,11.789,0,0,1,1.3-1.077,8.174,8.174,0,0,0-5.177.172,10.571,10.571,0,0,1-5.291.9,17.727,17.727,0,0,1-2.6-.539c-1.2-.319-2.379-.7-3.691-1.091v-2.074a21.273,21.273,0,0,1,3.469.792,9.214,9.214,0,0,0,7.293.011,9.594,9.594,0,0,1,7.411.076,2.155,2.155,0,0,0,1.8-.01,22.653,22.653,0,0,1,18.027.04,1.686,1.686,0,0,0,1.155.024,10.475,10.475,0,0,1,8.131.038,7.986,7.986,0,0,0,6.261,0,9.008,9.008,0,0,1,4.035-.786M21.694,290.124c-1.039-5.211,2.347-8.7,6.066-9.239a7.2,7.2,0,0,1,5.666,1.475c2.5,1.967,3.2,4.614,2.641,7.814a12.079,12.079,0,0,0,2.34-.461,12.785,12.785,0,0,1,6.274-1.034c.032,0,.07-.064.145-.136-.106-.233-.209-.486-.334-.728a15.023,15.023,0,0,0-6.05-6.3,19.46,19.46,0,0,0-12.05-2.153,16.382,16.382,0,0,0-13.047,8.219c-.191.326-.349.67-.618,1.191a12.758,12.758,0,0,1,6.91,1.066,9.531,9.531,0,0,0,2.057.285m12.1-.356a5.043,5.043,0,0,0-2.131-5.987,5.294,5.294,0,0,0-6.353.567c-1.563,1.431-2.162,3.816-1.328,5.381l2.552-.92c.084-1.9.89-2.91,2.293-2.911s2.223,1.024,2.293,2.916l2.674.953" transform="translate(-0.025 -230.617)"/>
      <path id="Path_77" data-name="Path 77" d="M57.633,408v2.147c-1.859.521-3.647,1.112-5.478,1.512a8.927,8.927,0,0,1-5.486-.562,8.509,8.509,0,0,0-6.886,0,9.647,9.647,0,0,1-7.57-.02,8.551,8.551,0,0,0-6.808,0,9.741,9.741,0,0,1-7.648-.017,8.446,8.446,0,0,0-6.73,0,10.113,10.113,0,0,1-7.5.094c-1.116-.4-2.28-.667-3.51-1.019v-2.12a24.142,24.142,0,0,1,3.6.86,9,9,0,0,0,7.131-.011,9.386,9.386,0,0,1,7.331.012,8.844,8.844,0,0,0,7.048,0,9.473,9.473,0,0,1,7.409.009,8.758,8.758,0,0,0,6.97.008,9.568,9.568,0,0,1,7.487,0,8.865,8.865,0,0,0,6.974,0A27.014,27.014,0,0,1,57.633,408" transform="translate(-0.014 -339.681)"/>
      <path id="Path_78" data-name="Path 78" d="M0,378.846v-1.907a6.305,6.305,0,0,1,3.3.513,9.36,9.36,0,0,0,7.758.009,8.839,8.839,0,0,1,6.855.073,9.2,9.2,0,0,0,7.368,0,9.109,9.109,0,0,1,7.09.019,9.141,9.141,0,0,0,7.291,0,9.2,9.2,0,0,1,7.17.015,9.129,9.129,0,0,0,7.216.013,25.023,25.023,0,0,1,3.547-.867v2.109c-1.4.427-2.735.847-4.08,1.244a9.809,9.809,0,0,1-6.714-.22,8.884,8.884,0,0,0-7.126-.014,9.41,9.41,0,0,1-7.332,0,8.873,8.873,0,0,0-7.05-.014,9.5,9.5,0,0,1-7.41,0,8.871,8.871,0,0,0-7.05.016,9.965,9.965,0,0,1-7.343.03c-1.112-.4-2.272-.66-3.494-1.007" transform="translate(0 -313.625)"/>
      <path id="Path_79" data-name="Path 79" d="M21.939,2.9a1.5,1.5,0,0,1-.415.529,1.8,1.8,0,0,1-.618.319,2.62,2.62,0,0,1-.759.107h-.8V5.3H18.286V.492H20.25a2.313,2.313,0,0,1,.773.12,1.645,1.645,0,0,1,.577.34,1.486,1.486,0,0,1,.364.525,1.745,1.745,0,0,1,.127.676v.014a1.683,1.683,0,0,1-.151.735m-.92-.728a.656.656,0,0,0-.23-.542.973.973,0,0,0-.628-.186h-.817v1.47h.838a.86.86,0,0,0,.618-.209.688.688,0,0,0,.22-.518Z" transform="translate(-15.224 -0.41)"/>
      <path id="Path_80" data-name="Path 80" d="M70.171,5.128,69.732,4.05H67.7l-.44,1.078H66.182L68.242.287h.975l2.06,4.841ZM68.716,1.557l-.639,1.559h1.277Z" transform="translate(-55.099 -0.239)"/>
      <path id="Path_81" data-name="Path 81" d="M126.782,4.47a2.286,2.286,0,0,1-.436.271,2.257,2.257,0,0,1-.518.172,3.128,3.128,0,0,1-.632.058,2.489,2.489,0,0,1-.982-.192,2.37,2.37,0,0,1-1.3-1.312,2.532,2.532,0,0,1-.185-.968V2.486a2.495,2.495,0,0,1,.7-1.754,2.385,2.385,0,0,1,.79-.536,2.569,2.569,0,0,1,1.016-.2,3.187,3.187,0,0,1,.615.055,2.561,2.561,0,0,1,.5.151,2.205,2.205,0,0,1,.419.233,2.869,2.869,0,0,1,.357.3l-.673.776a2.542,2.542,0,0,0-.573-.4,1.46,1.46,0,0,0-.656-.144,1.338,1.338,0,0,0-.559.117,1.324,1.324,0,0,0-.443.323,1.509,1.509,0,0,0-.288.477,1.621,1.621,0,0,0-.1.58v.014a1.649,1.649,0,0,0,.1.584,1.529,1.529,0,0,0,.285.481A1.321,1.321,0,0,0,125.23,4a1.474,1.474,0,0,0,.7-.151,2.715,2.715,0,0,0,.566-.412l.673.68a3.466,3.466,0,0,1-.385.357" transform="translate(-102.179)"/>
      <rect id="Rectangle_31" data-name="Rectangle 31" width="1.057" height="4.807" transform="translate(29.726 0.082)"/>
      <path id="Path_82" data-name="Path 82" d="M215.027,1.446V2.483h2.293v.955h-2.293V5.3h-1.057V.492h3.66v.955Z" transform="translate(-178.139 -0.409)"/>
      <rect id="Rectangle_32" data-name="Rectangle 32" width="1.057" height="4.807" transform="translate(44.229 0.082)"/>
      <path id="Path_83" data-name="Path 83" d="M303.355,4.47a2.286,2.286,0,0,1-.436.271,2.257,2.257,0,0,1-.518.172,3.128,3.128,0,0,1-.632.058,2.488,2.488,0,0,1-.982-.192,2.37,2.37,0,0,1-1.3-1.312A2.532,2.532,0,0,1,299.3,2.5V2.486A2.495,2.495,0,0,1,300,.731a2.385,2.385,0,0,1,.79-.536A2.569,2.569,0,0,1,301.81,0a3.187,3.187,0,0,1,.615.055,2.561,2.561,0,0,1,.5.151,2.205,2.205,0,0,1,.419.233,2.867,2.867,0,0,1,.357.3l-.673.776a2.541,2.541,0,0,0-.573-.4A1.46,1.46,0,0,0,301.8.975a1.338,1.338,0,0,0-.559.117,1.324,1.324,0,0,0-.443.323,1.51,1.51,0,0,0-.288.477,1.621,1.621,0,0,0-.1.58v.014a1.649,1.649,0,0,0,.1.584,1.529,1.529,0,0,0,.285.481A1.321,1.321,0,0,0,301.8,4a1.474,1.474,0,0,0,.7-.151,2.716,2.716,0,0,0,.566-.412l.673.68a3.468,3.468,0,0,1-.385.357" transform="translate(-249.183)"/>
      <path id="Path_84" data-name="Path 84" d="M52.351,62.721a1.307,1.307,0,0,1-.362.467,1.63,1.63,0,0,1-.554.288,2.4,2.4,0,0,1-.713.1,3.186,3.186,0,0,1-1.078-.189,2.85,2.85,0,0,1-.961-.58l.625-.749a3.135,3.135,0,0,0,.676.426,1.808,1.808,0,0,0,.759.158.923.923,0,0,0,.512-.12.378.378,0,0,0,.182-.333v-.014a.414.414,0,0,0-.038-.182.383.383,0,0,0-.145-.148,1.529,1.529,0,0,0-.3-.137q-.19-.069-.492-.144a5.977,5.977,0,0,1-.661-.2,1.862,1.862,0,0,1-.5-.271,1.1,1.1,0,0,1-.32-.4,1.4,1.4,0,0,1-.114-.6v-.014a1.391,1.391,0,0,1,.123-.594,1.353,1.353,0,0,1,.344-.457,1.549,1.549,0,0,1,.529-.3,2.129,2.129,0,0,1,.679-.1,2.875,2.875,0,0,1,.972.158,2.821,2.821,0,0,1,.814.453l-.549.8a3.48,3.48,0,0,0-.632-.347,1.616,1.616,0,0,0-.618-.127.748.748,0,0,0-.464.12.365.365,0,0,0-.155.3V60a.431.431,0,0,0,.045.2.4.4,0,0,0,.162.155,1.527,1.527,0,0,0,.32.13q.2.062.513.144a4.9,4.9,0,0,1,.651.216,1.824,1.824,0,0,1,.482.288,1.105,1.105,0,0,1,.3.395,1.345,1.345,0,0,1,.1.543v.014a1.487,1.487,0,0,1-.13.635" transform="translate(-40.531 -48.814)"/>
      <path id="Path_85" data-name="Path 85" d="M103.587,62a2.458,2.458,0,0,1-1.343,1.325,2.781,2.781,0,0,1-2.05,0,2.54,2.54,0,0,1-.807-.529,2.366,2.366,0,0,1-.529-.783,2.466,2.466,0,0,1-.189-.965v-.014a2.43,2.43,0,0,1,.192-.965,2.459,2.459,0,0,1,1.342-1.325,2.644,2.644,0,0,1,1.027-.2,2.618,2.618,0,0,1,1.023.2,2.545,2.545,0,0,1,.807.529,2.37,2.37,0,0,1,.529.783,2.469,2.469,0,0,1,.189.965v.014a2.43,2.43,0,0,1-.192.965m-.913-.965a1.6,1.6,0,0,0-.107-.584,1.439,1.439,0,0,0-.766-.807,1.41,1.41,0,0,0-.584-.12,1.436,1.436,0,0,0-.587.117,1.343,1.343,0,0,0-.453.323,1.523,1.523,0,0,0-.3.477,1.573,1.573,0,0,0-.107.58v.014a1.6,1.6,0,0,0,.107.584,1.449,1.449,0,0,0,.762.807,1.4,1.4,0,0,0,.587.12,1.443,1.443,0,0,0,.584-.117,1.338,1.338,0,0,0,.457-.323,1.523,1.523,0,0,0,.3-.477,1.573,1.573,0,0,0,.107-.58Z" transform="translate(-82.147 -48.745)"/>
      <path id="Path_86" data-name="Path 86" d="M161.471,62.709a1.8,1.8,0,0,1-.422.676,1.729,1.729,0,0,1-.666.405,2.678,2.678,0,0,1-.872.134,1.906,1.906,0,0,1-2.081-2.136V59.042h1.058v2.719a1.272,1.272,0,0,0,.275.889.983.983,0,0,0,.762.3,1,1,0,0,0,.762-.288,1.212,1.212,0,0,0,.275-.865V59.042h1.057v2.712a2.786,2.786,0,0,1-.148.955" transform="translate(-131.067 -49.155)"/>
      <path id="Path_87" data-name="Path 87" d="M215.341,63.848l-2.328-3.056v3.056h-1.044V59.041h.975L215.2,62v-2.96h1.044v4.807Z" transform="translate(-176.474 -49.154)"/>
      <path id="Path_88" data-name="Path 88" d="M271.695,62.392a2.234,2.234,0,0,1-.525.762,2.486,2.486,0,0,1-.81.508,2.8,2.8,0,0,1-1.033.185h-1.875V59.041h1.875a2.847,2.847,0,0,1,1.033.182,2.44,2.44,0,0,1,.81.5,2.243,2.243,0,0,1,.525.759,2.389,2.389,0,0,1,.186.944v.014a2.413,2.413,0,0,1-.186.948m-.92-.948a1.565,1.565,0,0,0-.107-.584,1.372,1.372,0,0,0-.3-.46,1.312,1.312,0,0,0-.457-.3,1.588,1.588,0,0,0-.59-.106h-.817v2.9h.817a1.633,1.633,0,0,0,.59-.1,1.271,1.271,0,0,0,.457-.3,1.385,1.385,0,0,0,.3-.453,1.531,1.531,0,0,0,.107-.584Z" transform="translate(-222.664 -49.154)"/>
      <path id="Path_89" data-name="Path 89" d="M104.046,120.5l-.439-1.078h-2.032l-.44,1.078h-1.078l2.06-4.841h.975l2.06,4.841Zm-1.456-3.571-.639,1.559h1.277Z" transform="translate(-83.301 -96.287)"/>
      <path id="Path_90" data-name="Path 90" d="M163.378,120.667l-2.328-3.056v3.056h-1.044V115.86h.975l2.252,2.96v-2.96h1.044v4.807Z" transform="translate(-133.212 -96.458)"/>
      <path id="Path_91" data-name="Path 91" d="M221.741,119.21a2.234,2.234,0,0,1-.525.762,2.483,2.483,0,0,1-.81.508,2.8,2.8,0,0,1-1.033.186H217.5v-4.807h1.875a2.847,2.847,0,0,1,1.033.182,2.443,2.443,0,0,1,.81.5,2.245,2.245,0,0,1,.525.759,2.39,2.39,0,0,1,.186.944v.014a2.413,2.413,0,0,1-.186.948m-.92-.948a1.565,1.565,0,0,0-.107-.584,1.368,1.368,0,0,0-.3-.46,1.31,1.31,0,0,0-.457-.3,1.588,1.588,0,0,0-.59-.106h-.817v2.9h.817a1.633,1.633,0,0,0,.59-.1,1.268,1.268,0,0,0,.457-.3,1.386,1.386,0,0,0,.3-.453,1.531,1.531,0,0,0,.107-.584Z" transform="translate(-181.076 -96.458)"/>
    </g>
  </g>
</svg>
