<svg xmlns="http://www.w3.org/2000/svg" width="571.895" height="285.162" viewBox="0 0 571.895 285.162">
  <g id="Iceberg_-_blur" data-name="Iceberg - blur" transform="translate(-123.349 -54.345)">
    <path id="Path_19" data-name="Path 19" d="M183.686,325.4l41.668-80.188,19.2,15.822,40.26-80,43.32,48.325L400.762,58.585,456.5,175.379h3.108l20.388-27.417L529,251.1l29.722-21.751,43.15,96.043-20.407,8.924L549.715,325.4l-26.431,8.924-33.7-12.633L456.5,334.32l-33.343-12.633-28,12.633L362.77,321.687,330.844,334.32l-30.19-8.924-34.687,8.924L237.751,325.4,209.3,334.32Z" transform="translate(14.722 1.035)" fill="#fff"/>
    <g id="Group_29" data-name="Group 29" transform="translate(123.349 54.345)">
      <path id="Path_9" data-name="Path 9" d="M571.417,267.508c-1.076-2.116-3.341-2.679-5.923-1.4-3.993,1.975-7.948,4.028-11.949,5.986q-17.1,8.369-34.167-.12c-3.877-1.925-7.758-3.841-11.594-5.844a4.965,4.965,0,0,0-5.072.016c-1.784.979-3.631,1.846-5.454,2.752-2.333,1.16-2,1.483-3.176-1.177q-20.472-46.374-40.922-92.759c-1.5-3.4-3.1-3.733-5.869-1.216-7.582,6.9-15.182,13.781-22.719,20.729-1.2,1.106-1.644,1.013-2.329-.465-4.2-9.066-8.494-18.091-12.755-27.129Q392.062,129.92,374.63,92.965c-1.509-3.2-3.6-3.372-5.663-.5-2.711,3.776-5.382,7.579-8.073,11.368-3.386,4.768-6.773,9.535-10.364,14.588-.453-.909-.744-1.467-1.013-2.035Q322.581,59.423,295.657,2.454c-.631-1.337-1.331-2.538-3.027-2.449-1.59.083-2.182,1.283-2.73,2.572q-18.291,43.051-36.612,86.091-17.154,40.319-34.282,80.649c-.7,1.661-1.126,1.525-2.178.311-4.46-5.149-8.994-10.234-13.5-15.341q-12.074-13.675-24.154-27.344c-2.046-2.311-3.915-2.042-5.347.707l-.089.17q-18.567,36.72-37.1,73.458c-.852,1.693-1.436,1.69-2.809.587-4.963-3.986-10-7.876-15.043-11.769-2.14-1.654-3.674-1.289-4.928,1.084q-19.554,36.968-39.1,73.941c-1.588,3-1.646,3.157-4.578,1.48a6.554,6.554,0,0,0-7.154.028c-3.485,1.972-7.123,3.677-10.714,5.459a36.568,36.568,0,0,1-29.985,1.735c-5.562-2.048-10.627-5.2-15.971-7.738-2.57-1.222-4.832-.681-5.911,1.454s-.162,4.35,2.343,5.615q6.05,3.056,12.109,6.092a45.347,45.347,0,0,0,29.535,3.958c6.166-1.157,11.763-3.83,17.066-6.97,3.636-2.152,6.726-2.505,10.222.012a14.225,14.225,0,0,1,2.178,1.766,18.328,18.328,0,0,1,4.219,1.836,18.408,18.408,0,0,1,4.391,1.877c.243-.273.5-.1.719-.029a45.147,45.147,0,0,0,12.529,2.332,2.768,2.768,0,0,1,1.113.334c.5-.043,1-.072,1.5-.072.64,0,1.268.036,1.888.1,2.929-.889,6.024-.9,8.981-1.656,6.246-1.6,11.768-4.8,17.41-7.708a5.2,5.2,0,0,1,5.415.06c5.142,2.631,10.141,5.609,15.772,7.19a39.44,39.44,0,0,0,7.475,1.479,2.679,2.679,0,0,1,2.4,1.41,41.411,41.411,0,0,1,5.444-.379c.125,0,.246.008.371.009-.055-.549.316-.815,1.486-.913a44.33,44.33,0,0,0,17.234-5.228c2.415-1.286,4.969-2.326,7.3-3.736,1.761-1.064,3.134-.862,4.9.029,5.722,2.893,11.258,6.229,17.594,7.757a45.2,45.2,0,0,0,29.152-2.3c.876-.375,1.426-.731,1.9-.287a19.953,19.953,0,0,1,4.419-1.885,5.087,5.087,0,0,0-.744-.5c2.587-1.311,4.811-2.4,7-3.562a2.07,2.07,0,0,1,2.133.236c3.29,1.672,6.561,3.386,9.893,4.97q20.151,9.581,40.325-.007c3.045-1.448,6.091-2.917,9.019-4.582a4.087,4.087,0,0,1,4.382.052c5.049,2.547,9.926,5.5,15.382,7.157a44.88,44.88,0,0,0,33.621-2.507q4.986-2.4,9.888-4.983a2.842,2.842,0,0,1,3.009-.038c2.567,1.4,5.173,2.747,7.838,3.954,1.117.507,1.493.943,1.2,1.744h0a18.418,18.418,0,0,1,3.494.927l.083.031a18.369,18.369,0,0,1,2.148,1,18.5,18.5,0,0,1,3.9.9,16.014,16.014,0,0,1,1.916.088,8.313,8.313,0,0,1,2.866.688c.326-.019.653-.029.981-.029a18.905,18.905,0,0,1,4.179.474,17.482,17.482,0,0,1,2.371-.176c.52,0,1.028.039,1.534.079,1.717-.227,3.238-.421,4.746-.632a46.772,46.772,0,0,0,18.07-6.927c4.214-2.605,7.63-2.448,11.785.061a48.073,48.073,0,0,0,20.359,7.2,50.227,50.227,0,0,0,9.557.015,45.187,45.187,0,0,1,16.239-3.617,7.068,7.068,0,0,1,1.256-1.568c2.127-1.945,5.249-2.777,7.866-4.221a2.812,2.812,0,0,1,3,.062c3.326,1.742,6.675,3.444,10.06,5.071a44.735,44.735,0,0,0,31.253,3.029c7.56-1.914,14.071-6.181,21.005-9.493,2.577-1.232,3.4-3.442,2.294-5.607M297.062,18.617c.674.322.747,1.013,1,1.557q23.84,50.376,47.7,100.74a4.2,4.2,0,0,1-.422,4.939c-11.306,15.778-22.505,31.631-33.738,47.461-.423.6-.872,1.177-1.627,2.194-.606-4.364-1.144-8.174-1.662-11.988q-2.912-21.464-5.807-42.932a9.9,9.9,0,0,0-1.207-3.2q-8.53-16.54-17.054-33.085a4.912,4.912,0,0,1-.876-2.36l14.262,3.531c3.745.927,4.923,0,4.6-3.771q-2.62-30.721-5.272-61.439c-.046-.532-.272-1.1.092-1.652m-50.3,99.083c.4-1.015.809-1.969,1.218-2.862q1.421-3.34,2.841-6.681a21.172,21.172,0,0,0,.813-3.583,8.338,8.338,0,0,1,2.894-5.131l36.06-84.785c.753.144.572.62.6.944q2.643,30.433,5.262,60.869c.28,3.243.273,3.245-2.861,2.472-4.755-1.172-9.516-2.32-14.26-3.538-1.33-.341-2.537-.419-3.491.719-1.035,1.234-.586,2.455.067,3.718,6.775,13.115,13.491,26.261,20.321,39.348,1.206,2.311,1.269,4.767,1.607,7.2q3.2,23.067,6.3,46.147a3.324,3.324,0,0,1,.037,2.069c-.837-.181-1.224-.9-1.739-1.407q-15.026-14.814-30.018-29.664c-2.546-2.518-3.442-2.521-5.978-.013q-25.324,25.044-50.66,50.074c-.466.461-.806,1.129-1.837,1.282L246.765,117.7m-64.757,20.583c10.761,12.149,21.481,24.334,32.282,36.448a3.307,3.307,0,0,1,.665,4.162c-3.7,8.381-7.23,16.832-10.8,25.269a8.025,8.025,0,0,1-1.752,2.683q-25.407,25.089-50.8,50.2a2.76,2.76,0,0,1-1.756,1.083c2.438-5.053,4.721-9.794,7.012-14.532q14.086-29.123,28.188-58.238a7.425,7.425,0,0,0,.783-4.389c-1.794-14.2-3.506-28.414-5.238-42.623-.045-.371-.053-.746-.08-1.155.874-.04,1.107.664,1.488,1.094M99.788,274.089c-.826,1.639-1.686,2.682-3.216,2.065a39.612,39.612,0,0,1-17.5-4.988c-1.428-.761-.62-1.529-.2-2.316q8.063-15.275,16.145-30.54,10.71-20.245,21.39-40.506c.821-1.567,1.355-1.835,2.82-.631,3.981,3.27,8.062,6.427,12.2,9.5,1.389,1.031,1.586,1.813.781,3.393q-16.29,31.969-32.411,64.025m36.527-5.67a9.731,9.731,0,0,0-1.533-.77c-6.149-3.092-4.889-3.031-11.017.008-3.874,1.923-7.73,3.886-11.644,5.725a22.228,22.228,0,0,1-6.991,1.99c23.3-46.062,46.4-91.742,69.515-137.458.675.456.6,1.007.658,1.477q2.536,20.557,5.063,41.116a5.933,5.933,0,0,1-.608,3.481q-20.184,41.655-40.281,83.354c-.816,1.7-1.536,2.307-3.164,1.077m68.65,3.04c-3.437-1.806-6.954-3.461-10.383-5.28a5.181,5.181,0,0,0-5.245-.018c-4.229,2.209-8.463,4.421-12.789,6.431a36.659,36.659,0,0,1-30.55.6c-2.137-.876-2.132-.925-.531-2.508q29.266-28.953,58.538-57.9,29.681-29.347,59.38-58.676c.432-.427.751-1.043,1.71-1.177-.73,4.007-1.436,7.916-2.156,11.822q-3.787,20.558-7.568,41.119a5.117,5.117,0,0,1-.931,2.252q-23.586,31.373-47.127,62.782a1.539,1.539,0,0,1-2.348.55m177.368-5.395a4.654,4.654,0,0,0-4.722-.031q-5.936,3.069-11.934,6.015c-11.107,5.458-22.293,5.615-33.489.31-4.2-1.99-8.329-4.125-12.457-6.26a4.92,4.92,0,0,0-4.9-.013c-3.78,1.97-7.6,3.854-11.415,5.764q-17.527,8.791-35.036-.04c-3.695-1.862-7.42-3.666-11.072-5.61a5.3,5.3,0,0,0-5.418.027c-3.824,2.022-7.721,3.908-11.584,5.857a37.175,37.175,0,0,1-26.361,2.929c-2.556-.625-2.556-.664-1.011-2.721,14.875-19.8,29.66-39.669,44.716-59.331,2.688-3.51,3.216-7.369,3.953-11.314,3.1-16.575,6.114-33.167,9.172-49.749.1-.535-.08-1.333.556-1.507.593-.162.923.562,1.315.949,19.708,19.463,39.6,38.747,59.041,58.471,11.794,11.965,22.9,24.61,34.312,36.951q8.366,9.044,16.724,18.1c.514.556,1.018,1.121,1.717,1.892a3.453,3.453,0,0,1-2.111-.684m41.339,8.042a38.181,38.181,0,0,1-23.657.385,6.113,6.113,0,0,1-2.806-1.858c-20.081-21.752-40.089-43.572-60.326-65.178-7.524-8.033-15.56-15.589-23.438-23.283-1.332-1.3-1.505-2.092-.352-3.709q27.756-38.959,55.373-78.016c.418-.59.676-1.379,1.687-1.678,1.128,4.99,2.248,9.929,3.362,14.868q6.845,30.351,13.721,60.693a10.243,10.243,0,0,1-.24,4.511q-4.241,20.659-8.522,41.311a4.358,4.358,0,0,0,.076,3.166c.834,1.5,2.44,1.742,4.294.574,5.384-3.394,10.733-6.845,16.137-10.208,1.312-.817,2.642-2.6,4.011-2.075,1.187.456,1.27,2.612,1.8,4.031,6.722,17.932,13.409,35.876,20.191,53.785.628,1.658.211,2.169-1.312,2.683m27.688-4.848c-2.073-1.034-4.178-2.012-6.21-3.119a4.959,4.959,0,0,0-5.072-.014c-2.527,1.345-5.153,2.505-7.648,3.9-1.443.807-2.054.742-2.689-.973q-10.972-29.617-22.093-59.177c-.09-.239-.177-.477-.268-.715-1.188-3.127-2.57-3.592-5.343-1.824q-7.566,4.822-15.144,9.626c-.528.334-1.078.632-2.105,1.231,1.114-5.447,2.124-10.416,3.147-15.383,1.59-7.727,3.173-15.454,4.8-23.172a9,9,0,0,0-.154-3.948q-6.532-28.846-13.027-57.7c-.1-.423-.146-.857-.217-1.287l.464-.183q35.945,76.206,71.888,152.412l-.329.326m37.468,3.851a37.119,37.119,0,0,1-14.853,3.059,37.5,37.5,0,0,1-12.556-2.1,3.842,3.842,0,0,1-2.438-2.176q-16.356-34.82-32.813-69.591a1.831,1.831,0,0,1,.52-2.572c7-6.3,13.951-12.67,20.916-19.017,1.584-1.444,1.593-1.445,2.454.5q16.525,37.468,33.046,74.937c2.183,4.949,4.329,9.915,6.578,14.834.542,1.184.269,1.647-.855,2.121" transform="translate(0 -0.001)" fill="#fff"/>
    </g>
  </g>
</svg>
